mtllib hemisphere.mtl
g Part 1
usemtl 0.615686_0.811765_0.929412_0.000000_0.000000
o mesh0
v 0 0 0 
v -0.0482939 0.0129403 1.0842e-19 
v -0.0432991 0.0249987 1.0842e-19 
v -0.0353536 0.0353536 1.0842e-19 
v -0.0249987 0.0432991 1.0842e-19 
v -0.0129403 0.0482939 1.0842e-19 
v -2.44388e-17 0.0499975 1.0842e-19 
v 0.0129403 0.0482939 1.0842e-19 
v 0.0249987 0.0432991 1.0842e-19 
v 0.0353536 0.0353536 1.0842e-19 
v 0.0432991 0.0249987 1.0842e-19 
v 0.0482939 0.0129403 1.0842e-19 
v 0.0499975 1.22459e-17 1.0842e-19 
v 0.0482939 -0.0129403 1.0842e-19 
v 0.0432991 -0.0249987 1.0842e-19 
v 0.0353536 -0.0353536 1.0842e-19 
v 0.0249987 -0.0432991 1.0842e-19 
v 0.0129403 -0.0482939 1.0842e-19 
v -1.09123e-18 -0.0499975 1.0842e-19 
v -0.0129403 -0.0482939 1.0842e-19 
v -0.0249987 -0.0432991 1.0842e-19 
v -0.0353536 -0.0353536 1.0842e-19 
v -0.0432991 -0.0249987 1.0842e-19 
v -0.0482939 -0.0129403 1.0842e-19 
v -0.0499975 -6.12293e-18 1.0842e-19 
v 0.0218228 0 0.0454863 
v 0.0111957 0 0.0492305 
v 0.0108142 -0.00289765 0.0492305 
v 0.0210792 -0.00564816 0.0454863 
v 0.00969574 -0.00559784 0.0492305 
v 0.0188991 -0.0109114 0.0454863 
v 0.00791654 -0.00791654 0.0492305 
v 0.0154311 -0.0154311 0.0454863 
v 0.00559784 -0.00969574 0.0492305 
v 0.0109114 -0.0188991 0.0454863 
v 0.00289765 -0.0108142 0.0492305 
v 0.00564816 -0.0210792 0.0454863 
v -1.27684e-17 -0.0111957 0.0492305 
v -1.04087e-17 -0.0218228 0.0454863 
v -0.00289765 -0.0108142 0.0492305 
v -0.00564816 -0.0210792 0.0454863 
v -0.00559784 -0.00969574 0.0492305 
v -0.0109114 -0.0188991 0.0454863 
v -0.00791654 -0.00791654 0.0492305 
v -0.0154311 -0.0154311 0.0454863 
v -0.00969574 -0.00559784 0.0492305 
v -0.0188991 -0.0109114 0.0454863 
v -0.0108142 -0.00289765 0.0492305 
v -0.0210792 -0.00564816 0.0454863 
v -0.0111957 -5.28262e-18 0.0492305 
v -0.0218228 -1.0297e-17 0.0454863 
v -0.0108142 0.00289765 0.0492305 
v -0.0210792 0.00564816 0.0454863 
v -0.00969574 0.00559784 0.0492305 
v -0.0188991 0.0109114 0.0454863 
v -0.00791654 0.00791654 0.0492305 
v -0.0154311 0.0154311 0.0454863 
v -0.00559784 0.00969574 0.0492305 
v -0.0109114 0.0188991 0.0454863 
v -0.00289765 0.0108142 0.0492305 
v -0.00564816 0.0210792 0.0454863 
v -2.27122e-17 0.0111957 0.0492305 
v -2.97913e-17 0.0218228 0.0454863 
v 0.00289765 0.0108142 0.0492305 
v 0.00564816 0.0210792 0.0454863 
v 0.00559784 0.00969574 0.0492305 
v 0.0109114 0.0188991 0.0454863 
v 0.00791654 0.00791654 0.0492305 
v 0.0154311 0.0154311 0.0454863 
v 0.00969574 0.00559784 0.0492305 
v 0.0188991 0.0109114 0.0454863 
v 0.0108142 0.00289765 0.0492305 
v 0.0210792 0.00564816 0.0454863 
v 0.0313417 0 0.0394576 
v 0.0302738 -0.00811184 0.0394576 
v 0.0271427 -0.0156709 0.0394576 
v 0.022162 -0.022162 0.0394576 
v 0.0156709 -0.0271427 0.0394576 
v 0.00811184 -0.0302738 0.0394576 
v -8.2951e-18 -0.0313417 0.0394576 
v -0.00811184 -0.0302738 0.0394576 
v -0.0156709 -0.0271427 0.0394576 
v -0.022162 -0.022162 0.0394576 
v -0.0271427 -0.0156709 0.0394576 
v -0.0302738 -0.00811184 0.0394576 
v -0.0313417 -1.47884e-17 0.0394576 
v -0.0302738 0.00811184 0.0394576 
v -0.0271427 0.0156709 0.0394576 
v -0.022162 0.022162 0.0394576 
v -0.0156709 0.0271427 0.0394576 
v -0.00811184 0.0302738 0.0394576 
v -3.61322e-17 0.0313417 0.0394576 
v 0.00811184 0.0302738 0.0394576 
v 0.0156709 0.0271427 0.0394576 
v 0.022162 0.022162 0.0394576 
v 0.0271427 0.0156709 0.0394576 
v 0.0302738 0.00811184 0.0394576 
v 0.0392691 0 0.0314506 
v 0.037931 -0.0101636 0.0314506 
v 0.034008 -0.0196345 0.0314506 
v 0.0277674 -0.0277674 0.0314506 
v 0.0196345 -0.034008 0.0314506 
v 0.0101636 -0.037931 0.0314506 
v -6.53488e-18 -0.0392691 0.0314506 
v -0.0101636 -0.037931 0.0314506 
v -0.0196345 -0.034008 0.0314506 
v -0.0277674 -0.0277674 0.0314506 
v -0.034008 -0.0196345 0.0314506 
v -0.037931 -0.0101636 0.0314506 
v -0.0392691 -1.85289e-17 0.0314506 
v -0.037931 0.0101636 0.0314506 
v -0.034008 0.0196345 0.0314506 
v -0.0277674 0.0277674 0.0314506 
v -0.0196345 0.034008 0.0314506 
v -0.0101636 0.037931 0.0314506 
v -4.14128e-17 0.0392691 0.0314506 
v 0.0101636 0.037931 0.0314506 
v 0.0196345 0.034008 0.0314506 
v 0.0277674 0.0277674 0.0314506 
v 0.034008 0.0196345 0.0314506 
v 0.037931 0.0101636 0.0314506 
v 0.0452023 0 0.0218719 
v 0.043662 -0.0116992 0.0218719 
v 0.0391463 -0.0226011 0.0218719 
v 0.0319628 -0.0319628 0.0218719 
v 0.0226011 -0.0391463 0.0218719 
v 0.0116992 -0.043662 0.0218719 
v -5.21745e-18 -0.0452023 0.0218719 
v -0.0116992 -0.043662 0.0218719 
v -0.0226011 -0.0391463 0.0218719 
v -0.0319628 -0.0319628 0.0218719 
v -0.0391463 -0.0226011 0.0218719 
v -0.043662 -0.0116992 0.0218719 
v -0.0452023 -2.13284e-17 0.0218719 
v -0.043662 0.0116992 0.0218719 
v -0.0391463 0.0226011 0.0218719 
v -0.0319628 0.0319628 0.0218719 
v -0.0226011 0.0391463 0.0218719 
v -0.0116992 0.043662 0.0218719 
v -4.53651e-17 0.0452023 0.0218719 
v 0.0116992 0.043662 0.0218719 
v 0.0226011 0.0391463 0.0218719 
v 0.0319628 0.0319628 0.0218719 
v 0.0391463 0.0226011 0.0218719 
v 0.043662 0.0116992 0.0218719 
v 0.04884 0 0.0112078 
v 0.0471758 -0.0126407 0.0112078 
v 0.0422967 -0.02442 0.0112078 
v 0.0345351 -0.0345351 0.0112078 
v 0.02442 -0.0422967 0.0112078 
v 0.0126407 -0.0471758 0.0112078 
v -4.40972e-18 -0.04884 0.0112078 
v -0.0126407 -0.0471758 0.0112078 
v -0.02442 -0.0422967 0.0112078 
v -0.0345351 -0.0345351 0.0112078 
v -0.0422967 -0.02442 0.0112078 
v -0.0471758 -0.0126407 0.0112078 
v -0.04884 -2.30449e-17 0.0112078 
v -0.0471758 0.0126407 0.0112078 
v -0.0422967 0.02442 0.0112078 
v -0.0345351 0.0345351 0.0112078 
v -0.02442 0.0422967 0.0112078 
v -0.0126407 0.0471758 0.0112078 
v -4.77883e-17 0.04884 0.0112078 
v 0.0126407 0.0471758 0.0112078 
v 0.02442 0.0422967 0.0112078 
v 0.0345351 0.0345351 0.0112078 
v 0.0422967 0.02442 0.0112078 
v 0.0471758 0.0126407 0.0112078 
v 0.0499975 1.22459e-17 1.0842e-19 
v 0.0482939 -0.0129403 1.0842e-19 
v 0.0432991 -0.0249987 1.0842e-19 
v 0.0353536 -0.0353536 1.0842e-19 
v 0.0249987 -0.0432991 1.0842e-19 
v 0.0129403 -0.0482939 1.0842e-19 
v -1.09123e-18 -0.0499975 1.0842e-19 
v -0.0129403 -0.0482939 1.0842e-19 
v -0.0249987 -0.0432991 1.0842e-19 
v -0.0353536 -0.0353536 1.0842e-19 
v -0.0432991 -0.0249987 1.0842e-19 
v -0.0482939 -0.0129403 1.0842e-19 
v -0.0499975 -6.12293e-18 1.0842e-19 
v -0.0482939 0.0129403 1.0842e-19 
v -0.0432991 0.0249987 1.0842e-19 
v -0.0353536 0.0353536 1.0842e-19 
v -0.0249987 0.0432991 1.0842e-19 
v -0.0129403 0.0482939 1.0842e-19 
v -2.44388e-17 0.0499975 1.0842e-19 
v 0.0129403 0.0482939 1.0842e-19 
v 0.0249987 0.0432991 1.0842e-19 
v 0.0353536 0.0353536 1.0842e-19 
v 0.0432991 0.0249987 1.0842e-19 
v 0.0482939 0.0129403 1.0842e-19 
v -1.21928e-17 0 0.0505 
vn 0 0 -1 
vn 0 0 -1 
vn 0 0 -1 
vn 0 0 -1 
vn 0 0 -1 
vn 0 0 -1 
vn 0 0 -1 
vn 0 0 -1 
vn 0 0 -1 
vn 0 0 -1 
vn 0 0 -1 
vn 0 0 -1 
vn 0 0 -1 
vn 0 0 -1 
vn 0 0 -1 
vn 0 0 -1 
vn 0 0 -1 
vn 0 0 -1 
vn 0 0 -1 
vn 0 0 -1 
vn 0 0 -1 
vn 0 0 -1 
vn 0 0 -1 
vn 0 0 -1 
vn 0 0 -1 
vn 0.436456 0 0.899726 
vn 0.223913 0 0.974609 
vn 0.216284 -0.0579531 0.974609 
vn 0.421584 -0.112963 0.899726 
vn 0.193915 -0.111957 0.974609 
vn 0.377982 -0.218228 0.899726 
vn 0.158331 -0.158331 0.974609 
vn 0.308621 -0.308621 0.899726 
vn 0.111957 -0.193915 0.974609 
vn 0.218228 -0.377982 0.899726 
vn 0.0579531 -0.216284 0.974609 
vn 0.112963 -0.421584 0.899726 
vn 4.97188e-17 -0.223913 0.974609 
vn 9.69127e-17 -0.436456 0.899726 
vn -0.0579531 -0.216284 0.974609 
vn -0.112963 -0.421584 0.899726 
vn -0.111957 -0.193915 0.974609 
vn -0.218228 -0.377982 0.899726 
vn -0.158331 -0.158331 0.974609 
vn -0.308621 -0.308621 0.899726 
vn -0.193915 -0.111957 0.974609 
vn -0.377982 -0.218228 0.899726 
vn -0.216284 -0.0579531 0.974609 
vn -0.421584 -0.112963 0.899726 
vn -0.223913 -1.05652e-16 0.974609 
vn -0.436456 -2.0594e-16 0.899726 
vn -0.216284 0.0579531 0.974609 
vn -0.421584 0.112963 0.899726 
vn -0.193915 0.111957 0.974609 
vn -0.377982 0.218228 0.899726 
vn -0.158331 0.158331 0.974609 
vn -0.308621 0.308621 0.899726 
vn -0.111957 0.193915 0.974609 
vn -0.218228 0.377982 0.899726 
vn -0.0579531 0.216284 0.974609 
vn -0.112963 0.421584 0.899726 
vn -1.49156e-16 0.223913 0.974609 
vn -2.90738e-16 0.436456 0.899726 
vn 0.0579531 0.216284 0.974609 
vn 0.112963 0.421584 0.899726 
vn 0.111957 0.193915 0.974609 
vn 0.218228 0.377982 0.899726 
vn 0.158331 0.158331 0.974609 
vn 0.308621 0.308621 0.899726 
vn 0.193915 0.111957 0.974609 
vn 0.377982 0.218228 0.899726 
vn 0.216284 0.0579531 0.974609 
vn 0.421584 0.112963 0.899726 
vn 0.626835 0 0.779152 
vn 0.605476 -0.162237 0.779152 
vn 0.542855 -0.313417 0.779152 
vn 0.443239 -0.443239 0.779152 
vn 0.313417 -0.542855 0.779152 
vn 0.162237 -0.605476 0.779152 
vn 1.39185e-16 -0.626835 0.779152 
vn -0.162237 -0.605476 0.779152 
vn -0.313417 -0.542855 0.779152 
vn -0.443239 -0.443239 0.779152 
vn -0.542855 -0.313417 0.779152 
vn -0.605476 -0.162237 0.779152 
vn -0.626835 -2.95769e-16 0.779152 
vn -0.605476 0.162237 0.779152 
vn -0.542855 0.313417 0.779152 
vn -0.443239 0.443239 0.779152 
vn -0.313417 0.542855 0.779152 
vn -0.162237 0.605476 0.779152 
vn -4.17556e-16 0.626835 0.779152 
vn 0.162237 0.605476 0.779152 
vn 0.313417 0.542855 0.779152 
vn 0.443239 0.443239 0.779152 
vn 0.542855 0.313417 0.779152 
vn 0.605476 0.162237 0.779152 
vn 0.785382 0 0.619012 
vn 0.75862 -0.203272 0.619012 
vn 0.68016 -0.392691 0.619012 
vn 0.555349 -0.555349 0.619012 
vn 0.392691 -0.68016 0.619012 
vn 0.203272 -0.75862 0.619012 
vn 1.7439e-16 -0.785382 0.619012 
vn -0.203272 -0.75862 0.619012 
vn -0.392691 -0.68016 0.619012 
vn -0.555349 -0.555349 0.619012 
vn -0.68016 -0.392691 0.619012 
vn -0.75862 -0.203272 0.619012 
vn -0.785382 -3.70578e-16 0.619012 
vn -0.75862 0.203272 0.619012 
vn -0.68016 0.392691 0.619012 
vn -0.555349 0.555349 0.619012 
vn -0.392691 0.68016 0.619012 
vn -0.203272 0.75862 0.619012 
vn -5.23169e-16 0.785382 0.619012 
vn 0.203272 0.75862 0.619012 
vn 0.392691 0.68016 0.619012 
vn 0.555349 0.555349 0.619012 
vn 0.68016 0.392691 0.619012 
vn 0.75862 0.203272 0.619012 
vn 0.904045 0 0.427437 
vn 0.87324 -0.233984 0.427437 
vn 0.782926 -0.452023 0.427437 
vn 0.639256 -0.639256 0.427437 
vn 0.452023 -0.782926 0.427437 
vn 0.233984 -0.87324 0.427437 
vn 2.00738e-16 -0.904045 0.427437 
vn -0.233984 -0.87324 0.427437 
vn -0.452023 -0.782926 0.427437 
vn -0.639256 -0.639256 0.427437 
vn -0.782926 -0.452023 0.427437 
vn -0.87324 -0.233984 0.427437 
vn -0.904045 -4.26569e-16 0.427437 
vn -0.87324 0.233984 0.427437 
vn -0.782926 0.452023 0.427437 
vn -0.639256 0.639256 0.427437 
vn -0.452023 0.782926 0.427437 
vn -0.233984 0.87324 0.427437 
vn -6.02215e-16 0.904045 0.427437 
vn 0.233984 0.87324 0.427437 
vn 0.452023 0.782926 0.427437 
vn 0.639256 0.639256 0.427437 
vn 0.782926 0.452023 0.427437 
vn 0.87324 0.233984 0.427437 
vn 0.976799 0 0.214156 
vn 0.943516 -0.252814 0.214156 
vn 0.845933 -0.4884 0.214156 
vn 0.690701 -0.690701 0.214156 
vn 0.4884 -0.845933 0.214156 
vn 0.252814 -0.943516 0.214156 
vn 2.16893e-16 -0.976799 0.214156 
vn -0.252814 -0.943516 0.214156 
vn -0.4884 -0.845933 0.214156 
vn -0.690701 -0.690701 0.214156 
vn -0.845933 -0.4884 0.214156 
vn -0.943516 -0.252814 0.214156 
vn -0.976799 -4.60898e-16 0.214156 
vn -0.943516 0.252814 0.214156 
vn -0.845933 0.4884 0.214156 
vn -0.690701 0.690701 0.214156 
vn -0.4884 0.845933 0.214156 
vn -0.252814 0.943516 0.214156 
vn -6.50679e-16 0.976799 0.214156 
vn 0.252814 0.943516 0.214156 
vn 0.4884 0.845933 0.214156 
vn 0.690701 0.690701 0.214156 
vn 0.845933 0.4884 0.214156 
vn 0.943516 0.252814 0.214156 
vn 0.99995 0 -0.01 
vn 0.965878 -0.258806 -0.01 
vn 0.865982 -0.499975 -0.01 
vn 0.707071 -0.707071 -0.01 
vn 0.499975 -0.865982 -0.01 
vn 0.258806 -0.965878 -0.01 
vn 2.22034e-16 -0.99995 -0.01 
vn -0.258806 -0.965878 -0.01 
vn -0.499975 -0.865982 -0.01 
vn -0.707071 -0.707071 -0.01 
vn -0.865982 -0.499975 -0.01 
vn -0.965878 -0.258806 -0.01 
vn -0.99995 -4.71821e-16 -0.01 
vn -0.965878 0.258806 -0.01 
vn -0.865982 0.499975 -0.01 
vn -0.707071 0.707071 -0.01 
vn -0.499975 0.865982 -0.01 
vn -0.258806 0.965878 -0.01 
vn -6.66101e-16 0.99995 -0.01 
vn 0.258806 0.965878 -0.01 
vn 0.499975 0.865982 -0.01 
vn 0.707071 0.707071 -0.01 
vn 0.865982 0.499975 -0.01 
vn 0.965878 0.258806 -0.01 
vn 6.07085e-17 7.99242e-18 1 
f 1//1 2//2 3//3 
f 3//3 4//4 1//1 
f 4//4 5//5 1//1 
f 5//5 6//6 1//1 
f 6//6 7//7 1//1 
f 7//7 8//8 1//1 
f 8//8 9//9 1//1 
f 9//9 10//10 1//1 
f 10//10 11//11 1//1 
f 11//11 12//12 1//1 
f 12//12 13//13 1//1 
f 13//13 14//14 1//1 
f 14//14 15//15 1//1 
f 15//15 16//16 1//1 
f 16//16 17//17 1//1 
f 17//17 18//18 1//1 
f 18//18 19//19 1//1 
f 19//19 20//20 1//1 
f 20//20 21//21 1//1 
f 21//21 22//22 1//1 
f 22//22 23//23 1//1 
f 23//23 24//24 1//1 
f 24//24 25//25 1//1 
f 25//25 2//2 1//1 
f 26//26 27//27 28//28 
f 29//29 28//28 30//30 
f 31//31 30//30 32//32 
f 33//33 32//32 34//34 
f 35//35 34//34 36//36 
f 37//37 36//36 38//38 
f 39//39 38//38 40//40 
f 41//41 40//40 42//42 
f 43//43 42//42 44//44 
f 45//45 44//44 46//46 
f 47//47 46//46 48//48 
f 49//49 48//48 50//50 
f 51//51 50//50 52//52 
f 53//53 52//52 54//54 
f 55//55 54//54 56//56 
f 57//57 56//56 58//58 
f 59//59 58//58 60//60 
f 61//61 60//60 62//62 
f 63//63 62//62 64//64 
f 65//65 64//64 66//66 
f 67//67 66//66 68//68 
f 69//69 68//68 70//70 
f 71//71 70//70 72//72 
f 73//73 72//72 27//27 
f 74//74 26//26 29//29 
f 75//75 29//29 31//31 
f 76//76 31//31 33//33 
f 77//77 33//33 35//35 
f 78//78 35//35 37//37 
f 79//79 37//37 39//39 
f 80//80 39//39 41//41 
f 81//81 41//41 43//43 
f 82//82 43//43 45//45 
f 83//83 45//45 47//47 
f 84//84 47//47 49//49 
f 85//85 49//49 51//51 
f 86//86 51//51 53//53 
f 87//87 53//53 55//55 
f 88//88 55//55 57//57 
f 89//89 57//57 59//59 
f 90//90 59//59 61//61 
f 91//91 61//61 63//63 
f 92//92 63//63 65//65 
f 93//93 65//65 67//67 
f 94//94 67//67 69//69 
f 95//95 69//69 71//71 
f 96//96 71//71 73//73 
f 97//97 73//73 26//26 
f 98//98 74//74 75//75 
f 99//99 75//75 76//76 
f 100//100 76//76 77//77 
f 101//101 77//77 78//78 
f 102//102 78//78 79//79 
f 103//103 79//79 80//80 
f 104//104 80//80 81//81 
f 105//105 81//81 82//82 
f 106//106 82//82 83//83 
f 107//107 83//83 84//84 
f 108//108 84//84 85//85 
f 109//109 85//85 86//86 
f 110//110 86//86 87//87 
f 111//111 87//87 88//88 
f 112//112 88//88 89//89 
f 113//113 89//89 90//90 
f 114//114 90//90 91//91 
f 115//115 91//91 92//92 
f 116//116 92//92 93//93 
f 117//117 93//93 94//94 
f 118//118 94//94 95//95 
f 119//119 95//95 96//96 
f 120//120 96//96 97//97 
f 121//121 97//97 74//74 
f 122//122 98//98 99//99 
f 123//123 99//99 100//100 
f 124//124 100//100 101//101 
f 125//125 101//101 102//102 
f 126//126 102//102 103//103 
f 127//127 103//103 104//104 
f 128//128 104//104 105//105 
f 129//129 105//105 106//106 
f 130//130 106//106 107//107 
f 131//131 107//107 108//108 
f 132//132 108//108 109//109 
f 133//133 109//109 110//110 
f 134//134 110//110 111//111 
f 135//135 111//111 112//112 
f 136//136 112//112 113//113 
f 137//137 113//113 114//114 
f 138//138 114//114 115//115 
f 139//139 115//115 116//116 
f 140//140 116//116 117//117 
f 141//141 117//117 118//118 
f 142//142 118//118 119//119 
f 143//143 119//119 120//120 
f 144//144 120//120 121//121 
f 145//145 121//121 98//98 
f 146//146 122//122 123//123 
f 147//147 123//123 124//124 
f 148//148 124//124 125//125 
f 149//149 125//125 126//126 
f 150//150 126//126 127//127 
f 151//151 127//127 128//128 
f 152//152 128//128 129//129 
f 153//153 129//129 130//130 
f 154//154 130//130 131//131 
f 155//155 131//131 132//132 
f 156//156 132//132 133//133 
f 157//157 133//133 134//134 
f 158//158 134//134 135//135 
f 159//159 135//135 136//136 
f 160//160 136//136 137//137 
f 161//161 137//137 138//138 
f 162//162 138//138 139//139 
f 163//163 139//139 140//140 
f 164//164 140//140 141//141 
f 165//165 141//141 142//142 
f 166//166 142//142 143//143 
f 167//167 143//143 144//144 
f 168//168 144//144 145//145 
f 169//169 145//145 122//122 
f 170//170 146//146 147//147 
f 171//171 147//147 148//148 
f 172//172 148//148 149//149 
f 173//173 149//149 150//150 
f 174//174 150//150 151//151 
f 175//175 151//151 152//152 
f 176//176 152//152 153//153 
f 177//177 153//153 154//154 
f 178//178 154//154 155//155 
f 179//179 155//155 156//156 
f 180//180 156//156 157//157 
f 181//181 157//157 158//158 
f 182//182 158//158 159//159 
f 183//183 159//159 160//160 
f 184//184 160//160 161//161 
f 185//185 161//161 162//162 
f 186//186 162//162 163//163 
f 187//187 163//163 164//164 
f 188//188 164//164 165//165 
f 189//189 165//165 166//166 
f 190//190 166//166 167//167 
f 191//191 167//167 168//168 
f 192//192 168//168 169//169 
f 193//193 169//169 146//146 
f 146//146 170//170 193//193 
f 169//169 193//193 192//192 
f 168//168 192//192 191//191 
f 167//167 191//191 190//190 
f 166//166 190//190 189//189 
f 165//165 189//189 188//188 
f 164//164 188//188 187//187 
f 163//163 187//187 186//186 
f 162//162 186//186 185//185 
f 161//161 185//185 184//184 
f 160//160 184//184 183//183 
f 159//159 183//183 182//182 
f 158//158 182//182 181//181 
f 157//157 181//181 180//180 
f 156//156 180//180 179//179 
f 155//155 179//179 178//178 
f 154//154 178//178 177//177 
f 153//153 177//177 176//176 
f 152//152 176//176 175//175 
f 151//151 175//175 174//174 
f 150//150 174//174 173//173 
f 149//149 173//173 172//172 
f 148//148 172//172 171//171 
f 147//147 171//171 170//170 
f 122//122 146//146 169//169 
f 145//145 169//169 168//168 
f 144//144 168//168 167//167 
f 143//143 167//167 166//166 
f 142//142 166//166 165//165 
f 141//141 165//165 164//164 
f 140//140 164//164 163//163 
f 139//139 163//163 162//162 
f 138//138 162//162 161//161 
f 137//137 161//161 160//160 
f 136//136 160//160 159//159 
f 135//135 159//159 158//158 
f 134//134 158//158 157//157 
f 133//133 157//157 156//156 
f 132//132 156//156 155//155 
f 131//131 155//155 154//154 
f 130//130 154//154 153//153 
f 129//129 153//153 152//152 
f 128//128 152//152 151//151 
f 127//127 151//151 150//150 
f 126//126 150//150 149//149 
f 125//125 149//149 148//148 
f 124//124 148//148 147//147 
f 123//123 147//147 146//146 
f 98//98 122//122 145//145 
f 121//121 145//145 144//144 
f 120//120 144//144 143//143 
f 119//119 143//143 142//142 
f 118//118 142//142 141//141 
f 117//117 141//141 140//140 
f 116//116 140//140 139//139 
f 115//115 139//139 138//138 
f 114//114 138//138 137//137 
f 113//113 137//137 136//136 
f 112//112 136//136 135//135 
f 111//111 135//135 134//134 
f 110//110 134//134 133//133 
f 109//109 133//133 132//132 
f 108//108 132//132 131//131 
f 107//107 131//131 130//130 
f 106//106 130//130 129//129 
f 105//105 129//129 128//128 
f 104//104 128//128 127//127 
f 103//103 127//127 126//126 
f 102//102 126//126 125//125 
f 101//101 125//125 124//124 
f 100//100 124//124 123//123 
f 99//99 123//123 122//122 
f 74//74 98//98 121//121 
f 97//97 121//121 120//120 
f 96//96 120//120 119//119 
f 95//95 119//119 118//118 
f 94//94 118//118 117//117 
f 93//93 117//117 116//116 
f 92//92 116//116 115//115 
f 91//91 115//115 114//114 
f 90//90 114//114 113//113 
f 89//89 113//113 112//112 
f 88//88 112//112 111//111 
f 87//87 111//111 110//110 
f 86//86 110//110 109//109 
f 85//85 109//109 108//108 
f 84//84 108//108 107//107 
f 83//83 107//107 106//106 
f 82//82 106//106 105//105 
f 81//81 105//105 104//104 
f 80//80 104//104 103//103 
f 79//79 103//103 102//102 
f 78//78 102//102 101//101 
f 77//77 101//101 100//100 
f 76//76 100//100 99//99 
f 75//75 99//99 98//98 
f 26//26 74//74 97//97 
f 73//73 97//97 96//96 
f 71//71 96//96 95//95 
f 69//69 95//95 94//94 
f 67//67 94//94 93//93 
f 65//65 93//93 92//92 
f 63//63 92//92 91//91 
f 61//61 91//91 90//90 
f 59//59 90//90 89//89 
f 57//57 89//89 88//88 
f 55//55 88//88 87//87 
f 53//53 87//87 86//86 
f 51//51 86//86 85//85 
f 49//49 85//85 84//84 
f 47//47 84//84 83//83 
f 45//45 83//83 82//82 
f 43//43 82//82 81//81 
f 41//41 81//81 80//80 
f 39//39 80//80 79//79 
f 37//37 79//79 78//78 
f 35//35 78//78 77//77 
f 33//33 77//77 76//76 
f 31//31 76//76 75//75 
f 29//29 75//75 74//74 
f 27//27 26//26 73//73 
f 72//72 73//73 71//71 
f 70//70 71//71 69//69 
f 68//68 69//69 67//67 
f 66//66 67//67 65//65 
f 64//64 65//65 63//63 
f 62//62 63//63 61//61 
f 60//60 61//61 59//59 
f 58//58 59//59 57//57 
f 56//56 57//57 55//55 
f 54//54 55//55 53//53 
f 52//52 53//53 51//51 
f 50//50 51//51 49//49 
f 48//48 49//49 47//47 
f 46//46 47//47 45//45 
f 44//44 45//45 43//43 
f 42//42 43//43 41//41 
f 40//40 41//41 39//39 
f 38//38 39//39 37//37 
f 36//36 37//37 35//35 
f 34//34 35//35 33//33 
f 32//32 33//33 31//31 
f 30//30 31//31 29//29 
f 28//28 29//29 26//26 
f 27//27 72//72 194//194 
f 72//72 70//70 194//194 
f 70//70 68//68 194//194 
f 68//68 66//66 194//194 
f 66//66 64//64 194//194 
f 64//64 62//62 194//194 
f 62//62 60//60 194//194 
f 60//60 58//58 194//194 
f 58//58 56//56 194//194 
f 56//56 54//54 194//194 
f 54//54 52//52 194//194 
f 52//52 50//50 194//194 
f 50//50 48//48 194//194 
f 48//48 46//46 194//194 
f 46//46 44//44 194//194 
f 44//44 42//42 194//194 
f 42//42 40//40 194//194 
f 40//40 38//38 194//194 
f 38//38 36//36 194//194 
f 36//36 34//34 194//194 
f 34//34 32//32 194//194 
f 32//32 30//30 194//194 
f 30//30 28//28 194//194 
f 28//28 27//27 194//194 
